<?xml version="1.0" standalone="no"?>
<!DOCTYPE svg PUBLIC "-//W3C//DTD SVG 20010904//EN"
 "http://www.w3.org/TR/2001/REC-SVG-20010904/DTD/svg10.dtd">
<svg version="1.0" xmlns="http://www.w3.org/2000/svg"
 width="626.000000pt" height="626.000000pt" viewBox="0 0 626.000000 626.000000"
 preserveAspectRatio="xMidYMid meet">
<metadata>
Created by potrace 1.11, written by Peter Selinger 2001-2013
</metadata>
<g transform="translate(0.000000,626.000000) scale(0.100000,-0.100000)"
fill="#000000" stroke="none">
<path d="M2986 5783 c-1 -2 -52 -5 -112 -8 -60 -2 -131 -8 -159 -11 -27 -4
-62 -7 -77 -7 -16 0 -28 -2 -28 -6 0 -3 -19 -7 -43 -7 -23 -1 -53 -4 -67 -7
-14 -3 -44 -8 -67 -11 -22 -3 -52 -7 -65 -10 -12 -3 -36 -8 -53 -10 -16 -3
-43 -8 -60 -12 -16 -3 -37 -7 -45 -8 -9 -1 -20 -5 -25 -8 -6 -3 -39 -12 -75
-18 -36 -6 -69 -15 -75 -18 -5 -4 -19 -8 -29 -9 -11 -2 -39 -10 -62 -18 -24
-8 -53 -16 -66 -19 -43 -8 -53 -11 -59 -19 -3 -4 -16 -9 -29 -12 -38 -7 -94
-27 -107 -38 -7 -5 -13 -6 -13 -3 0 4 -10 1 -22 -6 -13 -7 -25 -13 -28 -13
-38 -9 -60 -19 -60 -27 0 -5 -4 -7 -9 -4 -10 7 -69 -19 -251 -107 -69 -34
-129 -61 -135 -62 -5 0 -12 -3 -15 -6 -5 -7 -52 -35 -140 -83 -30 -16 -57 -32
-60 -35 -9 -10 -44 -31 -62 -37 -10 -4 -18 -10 -18 -15 0 -5 -4 -9 -10 -9 -11
0 -133 -82 -138 -92 -2 -5 -10 -8 -18 -8 -8 0 -14 -4 -14 -10 0 -5 -7 -10 -15
-10 -8 0 -15 -4 -15 -10 0 -5 -6 -10 -14 -10 -8 0 -16 -4 -18 -8 -2 -5 -34
-33 -73 -63 -38 -29 -75 -58 -82 -64 -7 -5 -18 -14 -25 -20 -39 -30 -158 -136
-194 -172 -24 -24 -45 -43 -47 -43 -6 0 -77 -71 -77 -76 0 -3 -12 -17 -26 -32
-32 -34 -87 -148 -88 -184 -1 -16 -4 -28 -7 -28 -7 0 -4 -154 3 -180 18 -65
52 -142 76 -172 37 -46 125 -128 137 -128 3 0 17 -8 32 -17 14 -10 31 -18 37
-20 32 -6 53 -12 76 -21 42 -15 166 -11 229 8 87 26 150 64 226 136 37 35 71
64 76 64 5 0 9 7 9 15 0 8 4 15 9 15 5 0 25 15 45 33 91 81 213 177 226 177 6
0 8 5 5 10 -3 6 0 10 7 10 7 0 33 16 57 35 24 19 47 35 52 35 4 0 14 6 21 13
7 6 30 21 51 32 20 11 37 23 37 27 0 5 4 8 10 8 5 0 34 16 64 35 29 19 56 31
60 28 3 -4 6 -1 6 5 0 7 6 12 14 12 8 0 21 7 30 15 8 9 18 16 20 16 13 0 102
43 107 51 3 5 8 9 10 8 5 -2 48 14 99 37 60 26 73 32 138 57 34 13 62 23 62
21 0 -2 24 6 53 17 28 11 66 24 82 28 64 19 151 42 170 45 11 2 20 4 20 5 0 6
197 43 233 44 12 0 22 3 22 6 0 3 15 7 33 9 17 1 48 4 67 7 160 19 528 26 695
11 182 -15 210 -19 213 -28 2 -5 8 -7 13 -4 7 5 136 -15 199 -31 8 -2 31 -7
50 -12 19 -5 37 -9 40 -10 3 0 12 -3 20 -6 40 -13 186 -50 193 -48 4 1 7 -3 7
-8 0 -6 7 -10 15 -10 25 0 95 -24 95 -33 0 -5 4 -5 10 -2 5 3 20 -1 32 -9 12
-9 28 -16 35 -16 7 0 48 -16 90 -36 43 -20 83 -37 88 -38 11 -3 115 -55 172
-87 21 -12 58 -33 83 -47 25 -14 61 -35 80 -47 19 -12 39 -22 44 -23 5 0 12
-4 15 -9 3 -5 29 -25 56 -43 28 -19 52 -37 53 -42 2 -4 8 -8 14 -8 11 0 141
-100 146 -112 2 -5 9 -8 16 -8 7 0 21 -10 33 -22 25 -29 69 -68 103 -90 14
-10 21 -18 17 -18 -5 0 6 -12 25 -27 18 -16 55 -49 82 -75 27 -27 55 -48 63
-48 7 0 13 -4 13 -8 0 -10 66 -44 94 -49 11 -2 26 -9 33 -15 9 -7 55 -13 109
-14 96 -2 190 18 242 52 12 8 22 11 22 8 0 -4 8 3 19 14 10 12 21 22 25 22 7
0 58 50 94 94 27 32 73 132 64 140 -3 3 -1 6 5 6 5 0 11 6 12 13 5 36 7 203 2
212 -3 6 -6 12 -6 15 -6 40 -60 151 -90 184 -14 15 -25 31 -25 37 0 5 -3 9 -7
9 -13 0 -82 68 -76 74 4 3 2 6 -4 6 -6 0 -26 15 -46 34 -20 18 -38 32 -40 30
-2 -2 -10 7 -17 21 -8 14 -24 28 -37 31 -12 4 -21 9 -19 13 2 3 -13 19 -35 35
-21 17 -39 33 -39 38 0 4 -7 8 -15 8 -7 0 -18 6 -22 13 -4 7 -24 24 -43 37
-19 13 -48 37 -65 52 -16 15 -36 28 -42 28 -7 0 -13 3 -13 8 0 4 -18 18 -40
32 -22 14 -40 28 -40 32 0 5 -4 8 -10 8 -5 0 -49 26 -97 58 -116 75 -121 78
-168 103 -22 12 -42 24 -45 28 -11 14 -328 169 -334 164 -3 -4 -6 -1 -6 6 0 7
-4 10 -9 7 -5 -4 -11 -3 -13 1 -3 7 -98 51 -123 57 -5 1 -28 10 -50 20 -22 10
-47 19 -55 21 -8 3 -46 16 -85 30 -38 14 -78 25 -87 25 -10 0 -18 4 -18 8 0 8
-60 27 -115 37 -11 2 -20 4 -20 5 0 3 -39 12 -57 13 -10 1 -18 4 -18 7 0 5
-107 32 -145 36 -5 0 -17 4 -25 7 -8 3 -28 8 -45 11 -68 14 -82 16 -115 22
-19 3 -48 8 -65 11 -16 2 -45 8 -62 13 -22 5 -33 5 -33 -2 0 -7 -4 -7 -12 -1
-7 6 -20 10 -28 11 -8 0 -31 2 -51 5 -107 16 -312 28 -512 30 -76 1 -140 1
-141 0z"/>
<path d="M3096 4053 c-1 -1 -51 -4 -112 -7 -60 -3 -109 -5 -109 -6 0 -1 -13
-3 -30 -5 -143 -19 -209 -30 -301 -54 -45 -11 -90 -22 -100 -24 -10 -2 -30 -9
-44 -14 -14 -6 -28 -9 -32 -6 -5 2 -8 -1 -8 -7 0 -6 -6 -10 -12 -9 -7 1 -26
-3 -41 -9 -16 -7 -32 -12 -36 -12 -5 0 -30 -9 -57 -21 -27 -11 -65 -27 -84
-35 -19 -8 -42 -19 -50 -24 -8 -6 -26 -15 -40 -21 -50 -21 -95 -43 -100 -48
-3 -4 -23 -15 -45 -26 -22 -11 -46 -26 -53 -32 -7 -7 -20 -13 -28 -13 -8 0
-14 -4 -14 -10 0 -5 -11 -12 -25 -16 -14 -3 -25 -10 -25 -14 0 -5 -19 -19 -42
-33 -24 -14 -52 -34 -63 -44 -11 -10 -33 -29 -50 -41 -75 -56 -93 -72 -181
-159 -80 -79 -137 -158 -150 -208 -20 -74 -29 -126 -28 -155 3 -63 12 -125 23
-151 5 -15 8 -29 5 -32 -2 -2 2 -10 11 -17 8 -7 15 -18 15 -24 0 -14 78 -118
98 -130 8 -4 22 -16 31 -25 74 -72 268 -117 381 -89 19 5 40 10 45 11 6 1 16
6 23 10 6 5 12 5 12 1 0 -4 8 0 18 8 9 8 32 21 50 28 18 7 37 21 43 31 5 11
15 19 22 19 7 0 20 8 29 18 74 79 215 187 328 250 36 20 67 38 70 41 3 3 12 7
20 9 8 2 31 11 50 20 19 9 37 17 40 18 3 0 19 6 35 13 17 7 42 15 58 18 15 3
27 10 27 16 0 6 3 8 6 4 3 -3 17 -2 30 3 14 6 36 12 51 15 15 2 49 9 77 15 28
5 67 12 86 14 19 3 35 6 35 7 0 5 341 6 350 0 11 -6 22 -8 80 -14 40 -5 167
-33 195 -44 8 -4 18 -7 23 -8 4 -2 9 -4 12 -5 3 -1 9 -3 14 -4 5 0 13 -4 17
-8 4 -5 16 -8 27 -8 10 0 33 -10 50 -22 17 -12 28 -17 24 -11 -4 6 39 -14 95
-44 57 -30 106 -59 109 -65 3 -5 10 -9 15 -9 5 1 30 -15 55 -34 25 -19 49 -35
51 -35 3 0 32 -24 64 -54 33 -30 71 -65 87 -78 15 -13 35 -30 45 -39 14 -14
76 -50 92 -54 11 -3 46 -18 68 -28 37 -18 209 -14 267 7 66 23 123 55 160 88
17 16 33 28 38 28 4 0 7 7 7 15 0 8 8 15 17 15 9 0 14 3 10 6 -3 3 3 15 14 27
10 11 19 27 19 34 0 7 5 13 11 13 5 0 7 5 4 10 -3 6 -2 10 3 10 8 0 33 82 38
133 2 15 5 37 8 50 3 20 -2 68 -17 149 -3 14 -10 36 -17 47 -6 12 -7 21 -3 21
4 0 3 4 -3 8 -5 4 -21 25 -34 47 -33 56 -248 265 -271 265 -5 0 -14 9 -21 20
-7 11 -18 20 -25 20 -7 0 -13 3 -13 8 0 4 -16 16 -35 26 -19 11 -35 24 -35 29
0 6 -3 8 -6 4 -3 -3 -11 -1 -18 4 -46 38 -60 48 -86 59 -17 7 -30 16 -30 20 0
4 -15 14 -32 21 -18 7 -53 26 -77 41 -25 15 -53 28 -63 28 -10 0 -18 5 -18 10
0 6 -8 10 -18 10 -10 0 -22 4 -27 9 -10 9 -149 70 -175 76 -8 2 -53 18 -100
34 -47 17 -86 31 -88 31 -12 -3 -80 15 -89 23 -7 5 -13 7 -13 4 0 -3 -15 -1
-32 4 -40 11 -148 30 -203 34 -22 2 -41 5 -42 6 -2 1 -12 3 -23 4 -11 1 -21 3
-22 5 -3 1 -44 4 -231 13 -32 1 -59 1 -61 0z"/>
<path d="M2958 2358 c-122 -26 -129 -28 -152 -40 -12 -6 -23 -11 -26 -11 -16
3 -146 -69 -210 -116 -70 -51 -189 -167 -189 -184 0 -4 -12 -20 -26 -34 -13
-15 -35 -48 -47 -73 -13 -25 -26 -47 -29 -50 -3 -3 -14 -27 -24 -55 -10 -27
-23 -55 -28 -62 -5 -7 -6 -17 -2 -24 4 -6 3 -14 -3 -18 -37 -22 -50 -365 -18
-478 7 -28 11 -54 8 -57 -3 -3 0 -6 6 -6 7 0 11 -3 10 -7 -3 -11 23 -86 33
-98 5 -5 9 -17 9 -27 0 -10 3 -18 8 -18 4 0 13 -15 21 -32 8 -18 18 -35 22
-38 4 -3 9 -11 11 -19 3 -14 38 -59 80 -103 14 -15 25 -28 22 -28 -4 0 39 -42
81 -78 45 -39 122 -92 134 -92 6 0 11 -4 11 -10 0 -5 6 -10 14 -10 8 0 22 -8
32 -17 10 -10 18 -17 18 -15 1 2 8 1 16 -2 166 -60 283 -82 424 -78 97 3 222
24 239 41 5 5 15 7 22 5 7 -3 16 -1 20 5 3 6 13 11 22 11 37 0 208 101 281
165 67 59 162 165 162 183 0 6 3 12 8 12 4 0 16 17 27 38 10 20 26 45 34 55 8
9 11 17 6 17 -4 0 -1 10 7 22 13 19 41 91 43 108 0 3 4 11 8 18 5 6 6 12 2 12
-3 0 -2 8 4 18 5 9 12 37 15 62 10 68 11 74 19 86 3 6 4 14 0 17 -3 4 -7 53
-8 109 -1 57 -5 114 -9 128 -3 14 -8 36 -10 50 -8 44 -47 154 -67 188 -10 18
-19 39 -19 46 0 7 -9 22 -20 34 -11 12 -20 24 -20 27 0 14 -59 88 -135 168
-39 43 -120 107 -134 107 -6 0 -11 5 -11 10 0 6 -6 10 -14 10 -8 0 -16 4 -18
8 -4 11 -123 67 -176 84 -23 7 -42 16 -42 20 0 3 -8 5 -17 3 -10 -1 -29 2 -42
7 -71 26 -275 30 -383 6z"/>
</g>
</svg>
