<?xml version="1.0" standalone="no"?>
<!DOCTYPE svg PUBLIC "-//W3C//DTD SVG 20010904//EN"
 "http://www.w3.org/TR/2001/REC-SVG-20010904/DTD/svg10.dtd">
<svg version="1.0" xmlns="http://www.w3.org/2000/svg"
 width="568.000000pt" height="568.000000pt" viewBox="0 0 568.000000 568.000000"
 preserveAspectRatio="xMidYMid meet">
<metadata>
Created by potrace 1.11, written by Peter Selinger 2001-2013
</metadata>
<g transform="translate(0.000000,568.000000) scale(0.100000,-0.100000)"
fill="#000000" stroke="none">
<path d="M2745 5657 c-122 -41 -242 -95 -484 -217 -713 -359 -1606 -909 -1824
-1123 -43 -42 -56 -63 -70 -113 -116 -415 -116 -2313 0 -2728 14 -49 27 -71
68 -111 230 -225 1218 -828 1920 -1171 419 -205 473 -217 650 -150 210 79 723
344 1145 589 656 382 1098 688 1156 799 62 120 98 637 98 1408 0 771 -36 1288
-98 1408 -67 130 -660 526 -1441 962 -259 144 -733 379 -859 425 -130 48 -173
51 -261 22z m255 -1627 c206 -18 476 -82 590 -140 104 -54 142 -171 88 -275
-30 -57 -96 -97 -162 -97 -22 -1 -98 18 -168 40 -191 63 -281 77 -503 77 -158
0 -209 -4 -302 -23 -562 -113 -1012 -505 -1202 -1045 -43 -123 -71 -268 -81
-429 -11 -155 -26 -199 -83 -242 -105 -80 -271 -26 -306 100 -20 70 -7 254 30
444 190 977 1112 1675 2099 1590z m1138 -486 c12 -8 22 -22 22 -31 0 -9 -185
-376 -411 -815 -450 -872 -449 -870 -581 -956 -234 -152 -529 -124 -733 70
-190 179 -239 455 -124 695 35 74 137 187 207 231 26 16 355 188 732 382 377
194 723 372 769 396 47 24 87 44 91 44 3 0 16 -7 28 -16z m343 -420 c47 -23
92 -87 151 -212 122 -254 198 -570 198 -828 0 -123 -61 -207 -167 -229 -52
-11 -135 19 -173 61 -45 52 -51 73 -61 227 -15 236 -68 431 -176 642 -49 95
-56 118 -56 165 0 61 17 101 61 143 56 53 154 67 223 31z"/>
<path d="M2729 2463 c-95 -49 -147 -144 -136 -249 14 -133 116 -223 253 -224
223 -1 332 271 172 430 -75 75 -191 92 -289 43z"/>
</g>
</svg>
