<svg xmlns:xlink="http://www.w3.org/1999/xlink" viewBox="0 0 52.2 18.8">
  <defs>
    <linearGradient id="a">
      <stop offset="0" stop-color="#a0f"/>
      <stop offset="1" stop-color="#f0f"/>
    </linearGradient>
    <linearGradient id="b" x1="40" x2="80" y1="0" y2="0" gradientUnits="userSpaceOnUse" xlink:href="#a"/>
    <linearGradient id="c" x1="20" x2="40" y1="0" y2="0" gradientTransform="matrix(4 0 0 4 -100 100)" gradientUnits="userSpaceOnUse" xlink:href="#a"/>
  </defs>
  <g fill="url(#b)" transform="translate(-26.508393 -107.11116)">
    <path d="M45.942244 112.70345h1.015997v6.54048h3.439573v.9525h-4.45557v-7.49298zM51.969764 117.68818q0 .381.116417.70909.116416.31749.328082.55033.211666.22225.518582.35983.306915.127.687914.127.380999 0 .687915-.127.306915-.13758.518581-.35983.211666-.23284.328082-.55033.116417-.32809.116417-.70909 0-.38099-.116417-.69849-.116416-.32809-.328082-.55033-.211666-.23284-.518581-.35984-.306916-.13758-.687915-.13758-.380999 0-.687914.13758-.306916.127-.518582.35984-.211666.22224-.328082.55033-.116417.3175-.116417.69849zm-1.015996 0q0-.55033.201082-1.02658.211666-.47624.571498-.83608.359833-.35983.846664-.56091.486832-.21167 1.047747-.21167t1.047747.21167q.486831.20108.846664.56091.359832.35984.560915.83608.211666.47625.211666 1.02658 0 .55034-.211666 1.03717-.201083.47625-.560915.83608-.359833.34925-.846664.56091-.486832.20109-1.047747.20109t-1.047747-.20109q-.486831-.21166-.846664-.56091-.359832-.35983-.571498-.83608-.201082-.48683-.201082-1.03717zM58.856846 117.51885l-1.777994-2.33891h1.227662l1.21708 1.778 1.195913-1.778h1.153579l-1.714494 2.33891 2.031993 2.67758h-1.227663l-1.481661-2.10608-1.481662 2.10608h-1.174747l2.031994-2.67758zM63.053456 115.17994h.952497v5.01649h-.952497v-5.01649zm-.222249-1.79916q0-.28575.201082-.48683.211666-.21167.497415-.21167.285749 0 .486832.21167.211666.20108.211666.48683 0 .28575-.211666.49742-.201083.20108-.486832.20108t-.497415-.20108q-.201082-.21167-.201082-.49742zM65.542516 115.17994h.888997v.78317h.02117q.03175-.10584.15875-.26459.137583-.15875.338665-.29633.211666-.14816.486832-.24341.285749-.10584.624415-.10584.560915 0 .941914.23284.380998.23283.624414.69849.243416-.46566.687915-.69849.444498-.23284.89958-.23284.582082 0 .952497.1905.370416.1905.582082.508.211666.30692.285749.70908.08467.39158.08467.81492v2.92099h-.952497v-2.79399q0-.28575-.04233-.55034-.03175-.26458-.148166-.46566-.116417-.20108-.328083-.3175-.211666-.127-.560914-.127-.687915 0-.984247.42333-.296333.42333-.296333 1.09008v2.74108h-.952497v-2.62466q0-.35983-.04233-.65617-.03175-.29633-.148166-.50799-.105833-.22225-.317499-.33867-.201083-.127-.550332-.127-.253999 0-.497415.10583-.232832.0953-.412748.29634-.179916.20108-.285749.51858-.105833.30691-.105833.73024v2.6035h-.952497v-5.01649zM74.596693 115.79377q.402165-.37041.93133-.55033.529165-.1905 1.05833-.1905.550332 0 .941914.13759.402165.13758.656164.37041t.370416.53975q.126999.29633.126999.62441v2.56116q0 .26459.01058.48683.01058.22225.03175.42334h-.846663q-.03175-.381-.03175-.762h-.02117q-.317499.48683-.751414.68791-.433916.20109-1.005414.20109-.349249 0-.666748-.0953-.317499-.0952-.560914-.28575-.232833-.1905-.370416-.46567-.137583-.28575-.137583-.65616 0-.48683.211666-.81492.222249-.32808.592665-.52916.380999-.21167.878414-.29633.507998-.0952 1.079496-.0952h.698498v-.21167q0-.1905-.07408-.381t-.222249-.33866q-.148166-.15875-.370416-.24342-.222249-.0952-.529165-.0952-.275166 0-.486832.0529-.201082.0529-.370415.13758-.169333.0741-.306916.17992-.137583.10583-.264582.20108l-.571498-.59267zm2.688158 1.98966q-.338666 0-.698498.0423-.349249.0317-.645581.13758-.285749.10583-.476249.29633-.179916.1905-.179916.48683 0 .43392.285749.62442.296333.1905.793748.1905.391582 0 .666748-.127.275165-.13758.444498-.34925t.243416-.46567q.07408-.26458.07408-.51858v-.3175h-.507998z"/>
  </g>
  <path fill="url(#c)" d="M32.068359 0C28.519058 0 3.1047326 14.672317 1.3300781 17.746094c-1.77465068 3.073776-1.77465446 32.420364 0 35.49414C3.1047288 56.314049 28.519054 70.986328 32.068359 70.986328c3.549302 0 28.963627-14.672279 30.738282-17.746094 1.77465-3.073776 1.774654-32.420364 0-35.49414C61.03199 14.672317 35.617665 0 32.068359 0zm0 20.550781c3.177192 0 6.273843.588113 9.197266 1.765625 1.258696.507515 1.86848 1.928804 1.371094 3.1875-.507538 1.258696-1.928804 1.86848-3.1875 1.371094-2.344827-.933883-4.833016-1.410156-7.38086-1.410156-10.962833 0-19.884765 8.921906-19.884765 19.884765 0 1.360177-1.096825 2.457032-2.4570315 2.457032-1.3602028 0-2.4550781-1.096855-2.4550781-2.457032 0-13.673121 11.1237876-24.798828 24.7968746-24.798828zm15.728516 6.001953c.455051-.05789.847038.418992.625.88086l-9.591797 18.595703c-.355275.801902-.873403 1.562864-1.533203 2.222656-1.451562 1.451565-3.349469 2.183594-5.257813 2.183594-1.948947 0-3.90938-.762172-5.371093-2.294922-2.618907-2.730557-2.740461-7.155441-.263672-10.007813.751155-.852661 1.635285-1.503356 2.599609-1.929687l18.595703-9.591797c.06598-.03172.132259-.05032.197266-.05859zm3.771484 5.132813c.787379.05343 1.53392.482805 1.958985 1.21875 2.182416 3.765921 3.339844 8.07032 3.339844 12.445312 0 1.360177-1.096829 2.457032-2.457032 2.457032-1.350055 0-2.455078-1.096855-2.455078-2.457032 0-3.512201-.925559-6.963737-2.68164-9.978515-.680104-1.177512-.282958-2.679249.894531-3.359375.441558-.255033.927963-.358231 1.40039-.326172zm-19.529297 8.130859c-.812061 0-1.624944.316347-2.24414.935547-1.248544 1.2384-1.248544 3.247527 0 4.496094.619196.619389 1.432079.933594 2.24414.933594.822214 0 1.632757-.314394 2.251954-.933594 1.238392-1.2384 1.238392-3.257694 0-4.496094-.629348-.619389-1.439892-.935547-2.251954-.935547z" transform="scale(.26458)"/>
</svg>