<svg xmlns="http://www.w3.org/2000/svg" xmlns:xlink="http://www.w3.org/1999/xlink" viewBox="0 0 55 18.5">
  <defs>
    <linearGradient id="a">
      <stop offset="0" stop-color="#aa00ff"/>
      <stop offset="1" stop-color="#ee00ff"/>
    </linearGradient>
    <linearGradient id="b" x1="40" x2="80" y1="0" y2="0" gradientUnits="userSpaceOnUse" xlink:href="#a"/>
    <linearGradient id="c" x1="20" x2="40" y1="0" y2="0" gradientUnits="userSpaceOnUse" gradientTransform="matrix(4 0 0 4 -100 -400)" xlink:href="#a"/>
  </defs>
  <g transform="translate(-26.5 -107)" style="fill:url(#b)" id="text">
    <path id="char-L" d="m 45.917725,112.45825 0.758789,0 0,6.81372 2.896728,0 0,0.72803 -3.655517,0 0,-7.54175 z" />
    <path id="char-o" d="m 53.300537,114.27832 q 1.286865,0 2.132813,0.93311 0.769043,0.85107 0.769043,2.01489 0,1.16894 -0.815186,2.04565 -0.810059,0.87158 -2.08667,0.87158 -1.281738,0 -2.096924,-0.87158 -0.810058,-0.87671 -0.810058,-2.04565 0,-1.15869 0.769043,-2.00977 0.845947,-0.93823 2.137939,-0.93823 z m 0,0.70239 q -0.89209,0 -1.532959,0.66138 -0.640869,0.66138 -0.640869,1.59961 0,0.60498 0.292236,1.12793 0.292237,0.52295 0.789551,0.81006 0.497315,0.28198 1.092041,0.28198 0.594727,0 1.092041,-0.28198 0.497315,-0.28711 0.789551,-0.81006 0.292236,-0.52295 0.292236,-1.12793 0,-0.93823 -0.645996,-1.59961 -0.640869,-0.66138 -1.527832,-0.66138 z" />
    <path id="char-x" d="m 56.894531,114.42188 0.861328,0 1.476563,2.06616 1.476562,-2.06616 0.861328,0 -1.907226,2.65063 2.148193,2.92749 -0.871582,0 -1.707275,-2.34302 -1.681641,2.34302 -0.856201,0 2.112305,-2.92749 -1.912354,-2.65063 z" />
    <path id="char-i" d="m 62.826416,112.125 q 0.246094,0 0.42041,0.17432 0.174317,0.17431 0.174317,0.42041 0,0.24096 -0.174317,0.41528 -0.174316,0.17432 -0.42041,0.17432 -0.240967,0 -0.415283,-0.17432 -0.174317,-0.17432 -0.174317,-0.41528 0,-0.2461 0.174317,-0.42041 0.174316,-0.17432 0.415283,-0.17432 z m -0.358887,2.29688 0.722901,0 0,5.57812 -0.722901,0 0,-5.57812 z" />
    <path id="char-m" d="m 64.661865,114.42188 0.712647,0 0,0.96386 q 0.374267,-0.5332 0.769043,-0.77929 0.543457,-0.32813 1.14331,-0.32813 0.40503,0 0.769043,0.15894 0.364014,0.15893 0.594727,0.42553 0.230713,0.26148 0.399902,0.75367 0.358887,-0.65625 0.897217,-0.99463 0.53833,-0.34351 1.158691,-0.34351 0.579346,0 1.020264,0.29224 0.446045,0.29223 0.661377,0.81518 0.215332,0.52295 0.215332,1.56885 l 0,3.04541 -0.733154,0 0,-3.04541 q 0,-0.89722 -0.128174,-1.23047 -0.128174,-0.33838 -0.440918,-0.54346 -0.307617,-0.20507 -0.738281,-0.20507 -0.52295,0 -0.958741,0.30761 -0.430664,0.30762 -0.630615,0.82032 -0.199951,0.51269 -0.199951,1.7124 l 0,2.18408 -0.712647,0 0,-2.85571 q 0,-1.01001 -0.128173,-1.3689 -0.123047,-0.36401 -0.435791,-0.57935 -0.312744,-0.22045 -0.743409,-0.22045 -0.497314,0 -0.933105,0.30249 -0.430664,0.29736 -0.640869,0.80493 -0.205078,0.50757 -0.205078,1.55346 l 0,2.36353 -0.712647,0 0,-5.57812 z" />
    <path id="char-a" d="m 80.068359,114.42188 0,5.57812 -0.707519,0 0,-0.95874 q -0.451172,0.54858 -1.015137,0.82544 -0.558838,0.27685 -1.225342,0.27685 -1.184326,0 -2.025146,-0.8562 -0.835694,-0.86132 -0.835694,-2.09179 0,-1.20484 0.845948,-2.06104 0.845947,-0.8562 2.0354,-0.8562 0.687012,0 1.240723,0.29224 0.558838,0.29223 0.979248,0.87671 l 0,-1.02539 0.707519,0 z m -2.871093,0.54858 q -0.599854,0 -1.107422,0.29736 -0.507569,0.29224 -0.810059,0.82544 -0.297363,0.5332 -0.297363,1.12793 0,0.5896 0.30249,1.12793 0.30249,0.53833 0.810059,0.84082 0.512695,0.29736 1.097168,0.29736 0.589599,0 1.117675,-0.29736 0.528077,-0.29736 0.810059,-0.80493 0.287109,-0.50757 0.287109,-1.14331 0,-0.96899 -0.640869,-1.62012 -0.635742,-0.65112 -1.568847,-0.65112 z" />
  </g>
  <path fill="url(#c)" d="M32.068 0C28.52 0 3.105 14.672 1.33 17.746c-1.775 3.074-1.775 32.42 0 35.494 1.775 3.074 27.19 17.746 30.738 17.746 3.55 0 28.964-14.672 30.739-17.746 1.774-3.074 1.774-32.42 0-35.494C61.032 14.672 35.617 0 32.068 0zm0 20.55c3.178 0 6.274.589 9.198 1.766a2.46 2.46 0 011.37 3.188 2.46 2.46 0 01-3.187 1.371 19.88 19.88 0 00-7.38-1.41c-10.963 0-19.885 8.922-19.885 19.885a2.453 2.453 0 01-2.457 2.457A2.451 2.451 0 017.27 45.35c0-13.674 11.124-24.8 24.797-24.8zm15.729 6.003a.616.616 0 01.625.88L38.83 46.03a7.395 7.395 0 01-1.533 2.223 7.41 7.41 0 01-5.258 2.184 7.4 7.4 0 01-5.371-2.295c-2.619-2.73-2.74-7.156-.264-10.008a7.529 7.529 0 012.6-1.93L47.6 26.611a.64.64 0 01.197-.058zm3.771 5.133a2.446 2.446 0 011.96 1.218 24.853 24.853 0 013.34 12.446 2.453 2.453 0 01-2.458 2.457 2.458 2.458 0 01-2.455-2.457c0-3.513-.925-6.964-2.682-9.979a2.457 2.457 0 012.295-3.686zm-19.529 8.13c-.812 0-1.625.317-2.244.936a3.167 3.167 0 000 4.496 3.17 3.17 0 004.496 0 3.185 3.185 0 000-4.496 3.206 3.206 0 00-2.252-.936z" transform="scale(.26)"/>
</svg>