<svg xmlns="http://www.w3.org/2000/svg" width="201.31" height="238.19"><defs><clipPath id="a"><path d="M0 1000h1000V0H0v1000z"/></clipPath></defs><g clip-path="url(#a)" transform="matrix(1.18 0 0 -1.18 -489.58 710.28)"><path d="M556.1 516.68c0 30.83-25.08 55.9-55.9 55.9-30.84 0-55.92-25.07-55.92-55.9 0-17.17 7.78-32.54 20-42.8l9.93 9.93c-9.7 7.7-15.9 19.56-15.9 32.9 0 23.14 18.75 41.9 41.9 41.9s41.92-18.76 41.92-41.9c0-13.34-6.22-25.2-15.92-32.88l9.93-9.93c12.23 10.26 20 25.63 20 42.8"/><path d="M428.9 516.63c0 39.32 31.98 71.3 71.3 71.3 39.3 0 71.3-31.98 71.3-71.3 0-21.4-9.5-40.6-24.46-53.68L557 453c17.48 15.62 28.5 38.34 28.5 63.63 0 47.1-38.2 85.3-85.3 85.3-47.12 0-85.3-38.2-85.3-85.3 0-25.3 11-48 28.5-63.63l9.95 9.95c-14.97 13.08-24.46 32.3-24.46 53.68"/><path d="M504.1 401.65c-2.1-2.1-5.55-2.1-7.65 0L460.7 437.4c-2.1 2.1-2.1 5.55 0 7.65l35.75 35.76c2.1 2.1 5.54 2.1 7.64 0l35.74-35.74c2.1-2.1 2.1-5.54 0-7.64l-35.76-35.75z"/></g><text x="64.79" y="198.15" fill="#fff" style="line-height:125%" font-size="37.8" letter-spacing="0" word-spacing="0" font-family="sans-serif"><tspan x="64.79" y="198.15" style="-inkscape-font-specification:'Century Gothic'" font-size="21.26" font-family="Century Gothic">Loxima</tspan></text></svg>
